<svg width="624" height="349" viewBox="0 0 624 349" fill="none" xmlns="http://www.w3.org/2000/svg">
<g clip-path="url(#clip0_12_84)">
<path d="M42.5115 351.993C64.4692 260.845 182.078 363.365 204.035 272.217C225.993 181.07 343.602 283.589 365.56 192.442C387.517 101.294 505.126 203.814 527.084 112.666C549.041 21.5186 666.65 124.038 688.608 32.8905" stroke="#FFC300" stroke-linecap="round" stroke-linejoin="round" stroke-dasharray="1 1"/>
<path d="M125.016 311.244C83.9061 278.013 112.987 236.883 154.097 270.114" stroke="#FFC300" stroke-linecap="round" stroke-linejoin="round" stroke-dasharray="1 1"/>
<path d="M286.535 231.471C245.444 198.23 274.485 157.12 315.575 190.361" stroke="#FFC300" stroke-linecap="round" stroke-linejoin="round" stroke-dasharray="1 1"/>
<path d="M448.083 151.684C406.905 118.486 436.121 77.2892 477.298 110.487" stroke="#FFC300" stroke-linecap="round" stroke-linejoin="round" stroke-dasharray="1 1"/>
<path d="M205.785 271.353C207.162 324.208 257.547 326.091 256.169 273.236" stroke="#FFC300" stroke-linecap="round" stroke-linejoin="round" stroke-dasharray="1 1"/>
<path d="M367.333 191.566C368.62 244.465 419.185 246.259 417.898 193.36" stroke="#FFC300" stroke-linecap="round" stroke-linejoin="round" stroke-dasharray="1 1"/>
</g>
<defs>
<clipPath id="clip0_12_84">
<rect width="600.501" height="192" fill="white" transform="translate(0 265.919) rotate(-26.2844)"/>
</clipPath>
</defs>
</svg>
