<svg width="32" height="32" viewBox="0 0 32 32" fill="none" xmlns="http://www.w3.org/2000/svg">
<path d="M28.8533 4.85331L27.1466 3.14665C26.9966 2.99507 26.818 2.87474 26.6212 2.79262C26.4244 2.7105 26.2132 2.66821 26 2.66821C25.7867 2.66821 25.5756 2.7105 25.3787 2.79262C25.1819 2.87474 25.0033 2.99507 24.8533 3.14665L3.14665 24.8533C2.99507 25.0033 2.87474 25.1819 2.79262 25.3787C2.7105 25.5756 2.66821 25.7867 2.66821 26C2.66821 26.2132 2.7105 26.4244 2.79262 26.6212C2.87474 26.818 2.99507 26.9966 3.14665 27.1466L4.85331 28.8533C5.00241 29.0065 5.18069 29.1283 5.37764 29.2115C5.57458 29.2946 5.7862 29.3374 5.99998 29.3374C6.21376 29.3374 6.42537 29.2946 6.62232 29.2115C6.81927 29.1283 6.99755 29.0065 7.14665 28.8533L28.8533 7.14665C29.0065 6.99755 29.1283 6.81927 29.2115 6.62232C29.2946 6.42537 29.3374 6.21376 29.3374 5.99998C29.3374 5.7862 29.2946 5.57458 29.2115 5.37764C29.1283 5.18069 29.0065 5.00241 28.8533 4.85331Z" stroke="white" stroke-width="2" stroke-linecap="round" stroke-linejoin="round"/>
<path d="M18.6666 9.33337L22.6666 13.3334" stroke="white" stroke-width="2" stroke-linecap="round" stroke-linejoin="round"/>
<path d="M6.66663 8V13.3333" stroke="white" stroke-width="2" stroke-linecap="round" stroke-linejoin="round"/>
<path d="M25.3334 18.6666V24" stroke="white" stroke-width="2" stroke-linecap="round" stroke-linejoin="round"/>
<path d="M13.3334 2.66663V5.33329" stroke="white" stroke-width="2" stroke-linecap="round" stroke-linejoin="round"/>
<path d="M9.33333 10.6666H4" stroke="white" stroke-width="2" stroke-linecap="round" stroke-linejoin="round"/>
<path d="M28 21.3334H22.6666" stroke="white" stroke-width="2" stroke-linecap="round" stroke-linejoin="round"/>
<path d="M14.6667 4H12" stroke="white" stroke-width="2" stroke-linecap="round" stroke-linejoin="round"/>
</svg>
