<svg width="698" height="800" viewBox="0 0 698 800" fill="none" xmlns="http://www.w3.org/2000/svg">
<path d="M400 640C400 640 320 480 400 320C480 480 400 640 400 640Z" stroke="#FFC300" stroke-linecap="round" stroke-linejoin="round" stroke-width="3" stroke-dasharray="1 1"/>
<path d="M400 640C360 600 240 480 280 360C360 440 400 520 400 640Z" stroke="#FFC300" stroke-linecap="round" stroke-linejoin="round" stroke-width="3" stroke-dasharray="1 1"/>
<path d="M400 640C440 600 560 480 520 360C440 440 400 520 400 640Z" stroke="#FFC300" stroke-linecap="round" stroke-linejoin="round" stroke-width="3" stroke-dasharray="1 1"/>
<path d="M400 640C320 600 120 440 160 280C280 400 360 520 400 640Z" stroke="#FFC300" stroke-linecap="round" stroke-linejoin="round" stroke-width="3" stroke-dasharray="1 1"/>
<path d="M400 640C480 600 680 440 640 280C520 400 440 520 400 640Z" stroke="#FFC300" stroke-linecap="round" stroke-linejoin="round" stroke-width="3" stroke-dasharray="1 1"/>
</svg>
