<svg width="355" height="288" viewBox="0 0 355 288" fill="none" xmlns="http://www.w3.org/2000/svg">
<path d="M86.2 307.2C86.2 307.2 124.6 192 201.4 153.6C239.8 134.4 259 172.8 239.8 192" stroke="#FD3E05" stroke-linecap="round" stroke-linejoin="round" stroke-width="3" stroke-dasharray="1 1"/>
<path d="M201.4 153.6L182.2 115.2M201.4 153.6V107.52M201.4 153.6L220.6 115.2" stroke="#FD3E05" stroke-linecap="round" stroke-linejoin="round" stroke-width="3" stroke-dasharray="1 1"/>
<path d="M86.2 307.2C47.8 230.4 9.39996 153.6 47.8 76.8" stroke="#FD3E05" stroke-linecap="round" stroke-linejoin="round" stroke-width="3" stroke-dasharray="1 1"/>
<path d="M86.2 307.2C67 230.4 86.2 115.2 124.6 57.6" stroke="#FD3E05" stroke-linecap="round" stroke-linejoin="round" stroke-width="3" stroke-dasharray="1 1"/>
<path d="M86.2 307.2C105.4 230.4 163 96 201.4 57.6" stroke="#FD3E05" stroke-linecap="round" stroke-linejoin="round" stroke-width="3" stroke-dasharray="1 1"/>
<path d="M47.8 76.8C55.48 69.12 40.12 69.12 47.8 76.8Z" stroke="#FD3E05" stroke-linecap="round" stroke-linejoin="round" stroke-width="3" stroke-dasharray="1 1"/>
<path d="M124.6 57.6C132.28 49.92 116.92 49.92 124.6 57.6Z" stroke="#FD3E05" stroke-linecap="round" stroke-linejoin="round" stroke-width="3" stroke-dasharray="1 1"/>
<path d="M201.4 57.6C209.08 49.92 193.72 49.92 201.4 57.6Z" stroke="#FD3E05" stroke-linecap="round" stroke-linejoin="round" stroke-width="3" stroke-dasharray="1 1"/>
</svg>
