<svg width="496" height="173" viewBox="0 0 496 173" fill="none" xmlns="http://www.w3.org/2000/svg">
<g clip-path="url(#clip0_12_76)">
<path d="M0 86.5C49.6 21.625 99.2 151.375 148.8 86.5C198.4 21.625 248 151.375 297.6 86.5C347.2 21.625 396.8 151.375 446.4 86.5C496 21.625 545.6 151.375 595.2 86.5" stroke="gold" stroke-linecap="round" stroke-linejoin="round" stroke-width="3" stroke-dasharray="1 1"/>
<path d="M76.3968 86.5C56.5952 43.4413 96.1984 21.9119 116 64.9706" stroke="gold" stroke-linecap="round" stroke-linejoin="round" stroke-width="3" stroke-dasharray="1 1"/>
<path d="M225.397 86.5C205.595 43.4413 245.198 21.9119 265 64.9706" stroke="gold" stroke-linecap="round" stroke-linejoin="round" stroke-width="3" stroke-dasharray="1 1"/>
<path d="M374.397 86.5C354.595 43.4413 394.198 21.9119 414 64.9706" stroke="gold" stroke-linecap="round" stroke-linejoin="round" stroke-width="3" stroke-dasharray="1 1"/>
<path d="M150.397 86.5C130.595 129.559 170.198 151.088 190 108.029" stroke="gold" stroke-linecap="round" stroke-linejoin="round" stroke-width="3" stroke-dasharray="1 1"/>
<path d="M299.397 86.5C279.595 129.559 319.198 151.088 339 108.029" stroke="gold" stroke-linecap="round" stroke-linejoin="round" stroke-width="3" stroke-dasharray="1 1"/>
</g>
<defs>
<clipPath id="clip0_12_76">
<rect width="496" height="173" fill="gold"/>
</clipPath>
</defs>
</svg>
